<svg xmlns="http://www.w3.org/2000/svg" version="1.1" xmlns:xlink="http://www.w3.org/1999/xlink" xmlns:svgjs="http://svgjs.dev/svgjs" width="1000" height="623" viewBox="0 0 1000 623"><g transform="matrix(1,0,0,1,-0.6060606060606233,0.2522267206477409)"><svg viewBox="0 0 396 247" data-background-color="#ffffff" preserveAspectRatio="xMidYMid meet" height="623" width="1000" xmlns="http://www.w3.org/2000/svg" xmlns:xlink="http://www.w3.org/1999/xlink"><g id="tight-bounds" transform="matrix(1,0,0,1,0.2400000000000091,-0.09999999999999432)"><svg viewBox="0 0 395.52 247.2" height="247.2" width="395.52"><g><svg></svg></g><g><svg viewBox="0 0 395.52 247.2" height="247.2" width="395.52"><g transform="matrix(1,0,0,1,39.55199999999999,105.17056341789052)"><svg viewBox="0 0 316.416 36.858873164218956" height="36.858873164218956" width="316.416"><g><svg viewBox="0 0 316.416 36.858873164218956" height="36.858873164218956" width="316.416"><g><svg viewBox="0 0 316.41600000000005 36.85887316421896" height="36.858873164218956" width="316.416"><g><svg viewBox="0 0 316.41600000000005 36.85887316421896" height="36.85887316421896" width="316.41600000000005"><g><svg viewBox="0 0 316.41600000000005 36.85887316421896" height="36.85887316421896" width="316.41600000000005"><g><svg viewBox="0 0 316.41600000000005 36.85887316421896" height="36.85887316421896" width="316.41600000000005"><g transform="matrix(1,0,0,1,0,0)"><svg width="316.41600000000005" viewBox="3.3499999046325684 -34.54999923706055 298.0299987792969 34.89999771118164" height="36.85887316421896" data-palette-color="#096a2e"><g class="undefined-text-0" data-fill-palette-color="primary" id="text-0"><path d="M35.3-29.95L35.3-4.75Q35.3-2.55 34-1.28 32.7 0 30.2 0L30.2 0Q29.55 0 28.9-0.15 28.25-0.3 27.53-0.7 26.8-1.1 26.25-1.45 25.7-1.8 24.88-2.53 24.05-3.25 23.58-3.68 23.1-4.1 22.1-5.05 21.1-6 20.65-6.45L20.65-6.45 11.5-15.1 11.5-4.25Q11.5-1.8 10.58-0.9 9.65 0 7.65 0L7.65 0Q5.45 0 4.4-1 3.35-2 3.35-4.35L3.35-4.35 3.35-28.5Q3.35-31.35 4.8-32.8 6.25-34.25 8.95-34.25L8.95-34.25Q10.8-34.25 11.93-33.68 13.05-33.1 14.6-31.6L14.6-31.6 27.25-19 27.25-29.9Q27.25-32.05 28.33-33.13 29.4-34.2 31.25-34.2L31.25-34.2Q33.4-34.2 34.35-33.2 35.3-32.2 35.3-29.95L35.3-29.95ZM51.85-19.7L51.9-10.55Q51.9-7.7 54.1-7.7L54.1-7.7Q54.85-7.7 55.42-8.18 56-8.65 56.3-9.5 56.6-10.35 56.6-11.45L56.6-11.45 56.6-18.15Q56.6-19.85 57.2-21.13 57.8-22.4 58.95-23.1 60.1-23.8 61.65-23.8L61.65-23.8Q64.35-23.8 65.85-22.63 67.35-21.45 67.35-18.3L67.35-18.3 67.35-5.3Q67.35-2.25 66.1-1.1 64.85 0.05 61.7 0.05L61.7 0.05Q60.35 0.05 59.4-0.23 58.45-0.5 57.87-1.05 57.3-1.6 57-2.5L57-2.5Q54.95-1.15 52.67-0.6 50.4-0.05 47.6-0.05L47.6-0.05Q44.05-0.05 42.5-2.83 40.95-5.6 40.95-11.95L40.95-11.95Q40.95-15.1 41.1-17.07 41.25-19.05 41.57-20.48 41.9-21.9 42.57-22.6 43.25-23.3 44.17-23.6 45.1-23.9 46.6-23.9L46.6-23.9Q49.4-23.9 50.62-22.85 51.85-21.8 51.85-19.7L51.85-19.7ZM82.95-15.4L82.95-5.35Q82.95-2.35 81.7-1.18 80.45 0 77.25 0L77.25 0Q74.3 0 73.25-1.38 72.2-2.75 72.2-5.9L72.2-5.9 72.2-18.2Q72.2-19.9 72.8-21.18 73.4-22.45 74.55-23.15 75.7-23.85 77.25-23.85L77.25-23.85Q81.05-23.85 82.25-21.65L82.25-21.65Q85.15-23.85 87.85-23.85L87.85-23.85Q93.1-23.85 93.1-18.85L93.1-18.85Q93.1-16.85 91.95-15.6 90.8-14.35 88.95-14.35L88.95-14.35Q87.85-14.35 87.17-14.8 86.5-15.25 85.92-15.7 85.35-16.15 84.6-16.15L84.6-16.15Q83.5-16.15 82.95-15.4L82.95-15.4ZM106.69-19.7L106.74-10.55Q106.74-7.7 108.94-7.7L108.94-7.7Q109.69-7.7 110.27-8.18 110.84-8.65 111.14-9.5 111.44-10.35 111.44-11.45L111.44-11.45 111.44-18.15Q111.44-19.85 112.04-21.13 112.64-22.4 113.79-23.1 114.94-23.8 116.49-23.8L116.49-23.8Q119.19-23.8 120.69-22.63 122.19-21.45 122.19-18.3L122.19-18.3 122.19-5.3Q122.19-2.25 120.94-1.1 119.69 0.05 116.54 0.05L116.54 0.05Q115.19 0.05 114.24-0.23 113.29-0.5 112.72-1.05 112.14-1.6 111.84-2.5L111.84-2.5Q109.79-1.15 107.52-0.6 105.24-0.05 102.44-0.05L102.44-0.05Q98.89-0.05 97.34-2.83 95.79-5.6 95.79-11.95L95.79-11.95Q95.79-15.1 95.94-17.07 96.09-19.05 96.42-20.48 96.74-21.9 97.42-22.6 98.09-23.3 99.02-23.6 99.94-23.9 101.44-23.9L101.44-23.9Q104.24-23.9 105.47-22.85 106.69-21.8 106.69-19.7L106.69-19.7Z" fill="#096a2e" data-fill-palette-color="primary"></path><path d="M144.79-25.85L144.79-25.85Q144.79-27.4 142.74-27.4L142.74-27.4Q140.64-27.4 139.14-25.05 137.64-22.7 137.64-17.2L137.64-17.2Q137.64-12.1 139.37-9.78 141.09-7.45 143.44-7.45L143.44-7.45Q144.19-7.45 144.82-7.75 145.44-8.05 145.84-8.65 146.24-9.25 146.24-10.1L146.24-10.1Q145.04-10.1 144.17-10.55 143.29-11 142.89-11.68 142.49-12.35 142.49-13.15L142.49-13.15Q142.49-14.95 143.44-15.85 144.39-16.75 146.69-16.75L146.69-16.75 152.74-16.75Q155.64-16.75 157.24-15.5 158.84-14.25 158.84-11.1L158.84-11.1Q158.84-6.5 154.44-3.08 150.04 0.35 143.99 0.35L143.99 0.35Q138.44 0.35 134.12-1.65 129.79-3.65 127.27-7.63 124.74-11.6 124.74-17.05L124.74-17.05Q124.74-25.15 129.64-29.85 134.54-34.55 142.64-34.55L142.64-34.55Q145.84-34.55 148.39-34.08 150.94-33.6 152.62-32.8 154.29-32 155.42-30.88 156.54-29.75 157.02-28.5 157.49-27.25 157.49-25.9L157.49-25.9Q157.49-24.95 157.19-24.08 156.89-23.2 156.12-22.33 155.34-21.45 153.74-20.9 152.14-20.35 149.89-20.35L149.89-20.35Q146.59-20.35 145.69-21.33 144.79-22.3 144.79-25.85ZM174.34-15.4L174.34-5.35Q174.34-2.35 173.09-1.18 171.84 0 168.64 0L168.64 0Q165.69 0 164.64-1.38 163.59-2.75 163.59-5.9L163.59-5.9 163.59-18.2Q163.59-19.9 164.19-21.18 164.79-22.45 165.94-23.15 167.09-23.85 168.64-23.85L168.64-23.85Q172.44-23.85 173.64-21.65L173.64-21.65Q176.54-23.85 179.24-23.85L179.24-23.85Q184.49-23.85 184.49-18.85L184.49-18.85Q184.49-16.85 183.34-15.6 182.19-14.35 180.34-14.35L180.34-14.35Q179.24-14.35 178.56-14.8 177.89-15.25 177.31-15.7 176.74-16.15 175.99-16.15L175.99-16.15Q174.89-16.15 174.34-15.4L174.34-15.4ZM200.94 0.3L200.94 0.3Q194.84 0.3 190.86-2.85 186.89-6 186.89-11.45L186.89-11.45Q186.89-17.35 190.81-20.78 194.74-24.2 200.94-24.2L200.94-24.2Q206.79-24.2 209.51-22.13 212.24-20.05 212.24-16.45L212.24-16.45Q212.24-15.75 212.06-15.1 211.89-14.45 211.51-13.83 211.14-13.2 210.51-12.68 209.89-12.15 209.09-11.73 208.29-11.3 207.19-11.08 206.09-10.85 204.84-10.85L204.84-10.85 197.79-10.8Q198.29-9.2 199.59-8.28 200.89-7.35 202.89-7.35L202.89-7.35Q205.04-7.35 207.29-7.9L207.29-7.9Q208.24-8.15 209.36-8.7 210.49-9.25 210.99-9.25L210.99-9.25Q211.84-9.25 212.31-8.75 212.79-8.25 212.79-7.5L212.79-7.5Q212.79-6.6 211.99-5.33 211.19-4.05 209.76-2.78 208.34-1.5 205.99-0.6 203.64 0.3 200.94 0.3ZM197.54-14L197.54-14Q200.99-14.05 201.29-14.05L201.29-14.05Q202.04-14.05 202.39-14.95L202.39-14.95Q202.64-15.6 202.64-16.75L202.64-16.75Q202.64-19.9 200.74-19.9L200.74-19.9Q200.04-19.9 199.36-19.15 198.69-18.4 198.19-17.03 197.69-15.65 197.54-14ZM230.68 0.3L230.68 0.3Q224.58 0.3 220.61-2.85 216.63-6 216.63-11.45L216.63-11.45Q216.63-17.35 220.56-20.78 224.48-24.2 230.68-24.2L230.68-24.2Q236.53-24.2 239.26-22.13 241.98-20.05 241.98-16.45L241.98-16.45Q241.98-15.75 241.81-15.1 241.63-14.45 241.26-13.83 240.88-13.2 240.26-12.68 239.63-12.15 238.83-11.73 238.03-11.3 236.93-11.08 235.83-10.85 234.58-10.85L234.58-10.85 227.53-10.8Q228.03-9.2 229.33-8.28 230.63-7.35 232.63-7.35L232.63-7.35Q234.78-7.35 237.03-7.9L237.03-7.9Q237.98-8.15 239.11-8.7 240.23-9.25 240.73-9.25L240.73-9.25Q241.58-9.25 242.06-8.75 242.53-8.25 242.53-7.5L242.53-7.5Q242.53-6.6 241.73-5.33 240.93-4.05 239.51-2.78 238.08-1.5 235.73-0.6 233.38 0.3 230.68 0.3ZM227.28-14L227.28-14Q230.73-14.05 231.03-14.05L231.03-14.05Q231.78-14.05 232.13-14.95L232.13-14.95Q232.38-15.6 232.38-16.75L232.38-16.75Q232.38-19.9 230.48-19.9L230.48-19.9Q229.78-19.9 229.11-19.15 228.43-18.4 227.93-17.03 227.43-15.65 227.28-14ZM262.08-4.15L262.03-13.45Q262.03-16.25 259.83-16.25L259.83-16.25Q258.78-16.25 258.11-15.38 257.43-14.5 257.33-13.05L257.33-13.05 257.33-5.35Q257.33-2.3 256.08-1.15 254.83 0 251.68 0L251.68 0Q248.73 0 247.66-1.38 246.58-2.75 246.58-5.9L246.58-5.9 246.58-18.2Q246.58-20.75 247.96-22.3 249.33-23.85 251.63-23.85L251.63-23.85Q253.53-23.85 254.83-23.3 256.13-22.75 256.78-21.4L256.78-21.4Q260.68-23.95 266.28-23.95L266.28-23.95Q269.83-23.95 271.41-21.15 272.98-18.35 272.98-11.95L272.98-11.95Q272.98-8.8 272.83-6.83 272.68-4.85 272.36-3.43 272.03-2 271.33-1.3 270.63-0.6 269.71-0.3 268.78 0 267.33 0L267.33 0Q264.53 0 263.31-1.05 262.08-2.1 262.08-4.15L262.08-4.15ZM289.23-24.2L289.23-24.2Q293.88-24.2 296.98-22.3 300.08-20.4 300.08-18.15L300.08-18.15Q300.08-17.5 299.53-16.95 298.98-16.4 298.13-16.4L298.13-16.4Q297.38-16.4 296.48-16.93 295.58-17.45 294.78-18.05 293.98-18.65 292.68-19.15 291.38-19.65 289.93-19.65L289.93-19.65Q287.98-19.65 287.98-18.45L287.98-18.45Q287.98-17.6 288.98-17.1 289.98-16.6 291.9-16.05 293.83-15.5 294.83-15L294.83-15Q298.58-13.55 299.98-11.88 301.38-10.2 301.38-7.45L301.38-7.45Q301.38-6.1 300.63-4.78 299.88-3.45 298.38-2.27 296.88-1.1 294.3-0.38 291.73 0.35 288.43 0.35L288.43 0.35Q281.98 0.35 278.78-2.6L278.78-2.6Q277.23-4.05 277.23-5.6L277.23-5.6Q277.23-6.55 277.85-7.1 278.48-7.65 279.63-7.65L279.63-7.65Q280.78-7.65 283.13-6.53 285.48-5.4 287.48-5.4L287.48-5.4Q290.23-5.4 290.23-6.75L290.23-6.75Q290.23-7.45 288.78-7.88 287.33-8.3 284.98-8.9 282.63-9.5 281.23-10.4L281.23-10.4Q279.03-11.35 278.15-12.78 277.28-14.2 277.28-16.25L277.28-16.25Q277.28-19.75 280.6-21.98 283.93-24.2 289.23-24.2Z" fill="#3c3c3c" data-fill-palette-color="secondary"></path></g></svg></g></svg></g></svg></g></svg></g></svg></g></svg></g></svg></g><g mask="url(#5caaba86-2601-4d51-9609-78e54008cf8a)"><g transform="matrix(2.752147710823399, 0, 0, 2.752147710823399, 86.9308634447636, 1)"><svg xmlns="http://www.w3.org/2000/svg" xmlns:xlink="http://www.w3.org/1999/xlink" version="1.1" x="0" y="0" viewBox="5.763697624206543 0.5981950759887695 80.54010772705078 89.09405517578125" style="enable-background:new 0 0 91 91;" xml:space="preserve" height="89.09405517578125" width="80.54010772705078" class="icon-none" data-fill-palette-color="accent" id="none"><g fill="#398378" data-fill-palette-color="accent"><path d="M22.8 66.7c8.2 4 17.3 5.9 26.3 4.1-0.6 5.3-2 10.5-3.9 15.5-1.3 3.3 4.2 4.9 5.3 1.5 2.3-7 2.9-14.2 1.8-21.3 7.8-7.2 15.5-14.5 21.9-22.9 5.9-7.8 12-17.7 12.1-27.8C86.5 5.9 78.8-1.2 69 1 58.8 3.3 52.1 14.3 49.1 23.5c-4 12.2-3.2 25.1-0.3 37.4-0.1 0.3-0.2 0.5-0.3 0.8-1.9-4.9-6-9.3-9.6-12.5-5.5-5-13-10.9-20.8-11.1C11.2 37.9 4.4 43.5 6 50.8 7.4 58.4 16.4 63.5 22.8 66.7zM51.5 32.2c1.8-8.8 6-18.7 13.7-23.9 3.6-2.4 8.6-3.7 12.4-1 3.4 2.3 3.8 7 3.3 10.7-1.1 8.5-6.4 16.6-11.5 23.3-3.9 5.1-8.3 9.7-12.9 14.2 2.1-5 4.2-10 6.3-15C66 32.8 69.1 25 74.9 19c2.2-2.2-1.2-5.6-3.4-3.4-5.9 6-9.2 13.6-12.5 21.2-2.7 6.3-5.4 12.6-8.1 19C50.2 47.9 50 39.9 51.5 32.2zM12.6 44.9c6.3-5.5 15.9 1.8 21 5.8 3.1 2.4 5.9 5.1 8.2 8.2 0.6 0.8 1.1 1.6 1.6 2.5-5.6-3.1-11.1-6.1-16.7-9.2-3-1.7-5.7 3-2.7 4.6 5.7 3.2 11.5 6.3 17.2 9.5C35.6 66.2 30.1 64.5 25 62 20.6 59.7 5.3 51.3 12.6 44.9z" fill="#398378" data-fill-palette-color="accent"></path></g></svg></g></g></svg></g><defs><mask id="5e3d6d44-d1a6-46ec-b76c-32d713aae039"><rect width="640" height="400" fill="white"></rect><rect width="348.05760000000004" height="54.26186384645126" fill="black" x="145.97119999999998" y="172.86906807677437" id="transform-me" transform="matrix(1,0,0,1,-122.24000000000001,-76.4)"></rect></mask><mask id="1f6074e0-f4a9-4285-8bb7-daac6d1d1c09"><rect width="640" height="400" fill="white"></rect><rect width="348.05760000000004" height="54.26186384645126" fill="black" x="145.97119999999998" y="172.86906807677437" id="transform-me" transform="matrix(1,0,0,1,-122.24000000000001,-76.4)"></rect></mask><mask id="6b12dba1-32d2-430b-9661-0198499cd212"><rect width="640" height="400" fill="white"></rect><rect width="348.05760000000004" height="54.26186384645126" fill="black" x="145.97119999999998" y="172.86906807677437" id="transform-me" transform="matrix(1,0,0,1,-122.24000000000001,-76.4)"></rect></mask><mask id="5caaba86-2601-4d51-9609-78e54008cf8a"><rect width="640" height="400" fill="white"></rect><rect width="348.05760000000004" height="54.26186384645126" fill="black" x="145.97119999999998" y="172.86906807677437" id="transform-me" transform="matrix(1,0,0,1,-122.24000000000001,-76.4)"></rect></mask></defs></svg><rect width="395.52" height="247.2" fill="none" stroke="none" visibility="hidden"></rect></g></svg></g></svg>